<svg xmlns="http://www.w3.org/2000/svg" xmlns:xlink="http://www.w3.org/1999/xlink" width="500" zoomAndPan="magnify" viewBox="0 0 375 374.999991" height="500" preserveAspectRatio="xMidYMid meet" version="1.0"><defs><clipPath id="65ea19d143"><path d="M 1.90625 1.90625 L 373.09375 1.90625 L 373.09375 373.09375 L 1.90625 373.09375 Z M 1.90625 1.90625 " clip-rule="nonzero"/></clipPath><clipPath id="6c84f17f8f"><path d="M 187.5 1.90625 C 85 1.90625 1.90625 85 1.90625 187.5 C 1.90625 290 85 373.09375 187.5 373.09375 C 290 373.09375 373.09375 290 373.09375 187.5 C 373.09375 85 290 1.90625 187.5 1.90625 Z M 187.5 1.90625 " clip-rule="nonzero"/></clipPath><clipPath id="3d379c39e3"><path d="M 0.90625 0.90625 L 372.09375 0.90625 L 372.09375 372.09375 L 0.90625 372.09375 Z M 0.90625 0.90625 " clip-rule="nonzero"/></clipPath><clipPath id="de12f2a6e6"><path d="M 186.5 0.90625 C 84 0.90625 0.90625 84 0.90625 186.5 C 0.90625 289 84 372.09375 186.5 372.09375 C 289 372.09375 372.09375 289 372.09375 186.5 C 372.09375 84 289 0.90625 186.5 0.90625 Z M 186.5 0.90625 " clip-rule="nonzero"/></clipPath><clipPath id="463a6391c9"><rect x="0" width="373" y="0" height="373"/></clipPath><clipPath id="58401b9446"><path d="M 63.160156 96.726562 L 311.597656 96.726562 L 311.597656 276 L 63.160156 276 Z M 63.160156 96.726562 " clip-rule="nonzero"/></clipPath><clipPath id="d17f3480b9"><path d="M 86.925781 102.695312 C 235.230469 246.734375 237.785156 246.734375 242.902344 244.179688 C 250.570312 241.621094 262.503906 231.394531 268.46875 222.019531 C 276.140625 210.085938 282.960938 193.039062 282.960938 177.699219 C 283.8125 163.207031 276.992188 143.605469 271.027344 134.230469 C 267.617188 128.265625 263.355469 124.003906 258.242188 123.148438 C 253.980469 121.445312 250.570312 123.148438 243.753906 127.410156 C 224.148438 139.34375 170.453125 204.121094 140.621094 230.542969 C 119.316406 249.292969 96.300781 270.601562 83.515625 274.011719 C 78.402344 275.714844 73.289062 276.566406 69.878906 273.15625 C 66.46875 269.75 65.617188 252.703125 69.027344 250.144531 C 72.4375 246.734375 90.335938 252.703125 91.1875 256.964844 C 92.890625 261.226562 80.960938 274.863281 75.847656 275.714844 C 72.4375 275.714844 66.46875 271.453125 64.765625 268.042969 C 63.0625 263.78125 63.914062 258.667969 67.324219 250.996094 C 82.664062 223.722656 199.433594 112.921875 238.640625 99.285156 C 254.832031 94.171875 267.617188 97.582031 277.847656 102.695312 C 286.367188 106.105469 292.335938 114.625 297.449219 123.148438 C 303.414062 131.671875 307.675781 144.457031 310.234375 155.539062 C 311.9375 166.617188 311.9375 178.550781 309.382812 191.335938 C 306.824219 204.972656 301.710938 222.019531 294.039062 233.953125 C 286.367188 245.882812 272.730469 256.964844 263.355469 262.929688 C 257.390625 268.042969 253.128906 270.601562 246.308594 272.304688 C 236.933594 274.011719 223.296875 274.011719 208.808594 266.339844 C 173.863281 248.441406 79.253906 147.867188 69.027344 121.445312 C 66.46875 113.773438 66.46875 106.957031 69.878906 104.398438 C 72.4375 100.988281 86.925781 102.695312 86.925781 102.695312 " clip-rule="nonzero"/></clipPath><clipPath id="44f703140e"><path d="M 0.160156 0.726562 L 248.597656 0.726562 L 248.597656 180 L 0.160156 180 Z M 0.160156 0.726562 " clip-rule="nonzero"/></clipPath><clipPath id="8d51e9662a"><path d="M 23.925781 6.695312 C 172.230469 150.734375 174.785156 150.734375 179.902344 148.179688 C 187.570312 145.621094 199.503906 135.394531 205.46875 126.019531 C 213.140625 114.085938 219.960938 97.039062 219.960938 81.699219 C 220.8125 67.207031 213.992188 47.605469 208.027344 38.230469 C 204.617188 32.265625 200.355469 28.003906 195.242188 27.148438 C 190.980469 25.445312 187.570312 27.148438 180.753906 31.410156 C 161.148438 43.34375 107.453125 108.121094 77.621094 134.542969 C 56.316406 153.292969 33.300781 174.601562 20.515625 178.011719 C 15.402344 179.714844 10.289062 180.566406 6.878906 177.15625 C 3.46875 173.75 2.617188 156.703125 6.027344 154.144531 C 9.4375 150.734375 27.335938 156.703125 28.1875 160.964844 C 29.890625 165.226562 17.960938 178.863281 12.847656 179.714844 C 9.4375 179.714844 3.46875 175.453125 1.765625 172.042969 C 0.0625 167.78125 0.914062 162.667969 4.324219 154.996094 C 19.664062 127.722656 136.433594 16.921875 175.640625 3.285156 C 191.832031 -1.828125 204.617188 1.582031 214.847656 6.695312 C 223.367188 10.105469 229.335938 18.625 234.449219 27.148438 C 240.414062 35.671875 244.675781 48.457031 247.234375 59.539062 C 248.9375 70.617188 248.9375 82.550781 246.382812 95.335938 C 243.824219 108.972656 238.710938 126.019531 231.039062 137.953125 C 223.367188 149.882812 209.730469 160.964844 200.355469 166.929688 C 194.390625 172.042969 190.128906 174.601562 183.308594 176.304688 C 173.933594 178.011719 160.296875 178.011719 145.808594 170.339844 C 110.863281 152.441406 16.253906 51.867188 6.027344 25.445312 C 3.46875 17.773438 3.46875 10.957031 6.878906 8.398438 C 9.4375 4.988281 23.925781 6.695312 23.925781 6.695312 " clip-rule="nonzero"/></clipPath><clipPath id="780e205fe3"><rect x="0" width="249" y="0" height="180"/></clipPath></defs><g clip-path="url(#65ea19d143)"><g clip-path="url(#6c84f17f8f)"><g transform="matrix(1, 0, 0, 1, 1, 1)"><g clip-path="url(#463a6391c9)"><g clip-path="url(#3d379c39e3)"><g clip-path="url(#de12f2a6e6)"><path fill="#ffffff" d="M 0.90625 0.90625 L 372.09375 0.90625 L 372.09375 372.09375 L 0.90625 372.09375 Z M 0.90625 0.90625 " fill-opacity="1" fill-rule="nonzero"/></g></g></g></g></g></g><g clip-path="url(#58401b9446)"><g clip-path="url(#d17f3480b9)"><g transform="matrix(1, 0, 0, 1, 63, 96)"><g clip-path="url(#780e205fe3)"><g clip-path="url(#44f703140e)"><g clip-path="url(#8d51e9662a)"><rect x="-145.5" width="540" fill="#1a365d" height="539.999987" y="-178.499998" fill-opacity="1"/></g></g></g></g></g></g></svg>